<svg
	width="110"
	height="96"
	viewBox="0 0 110 96"
	fill="none"
	xmlns="http://www.w3.org/2000/svg"
>
<path
		d="M71.4749 95.9999C66.1946 94.2559 61.0838 82.3389 54.7378 82.3389C63.6271 87.6919 59.8485 94.7888 59.1219 95.9999H71.4991H71.4749Z"
		fill="#FF570A"
	/>
<path
		d="M109.939 52.8126C108.825 24.4734 85.9112 1.36601 57.5962 0.0580497C26.0355 -1.37102 0.0214844 23.771 0.0214844 54.9926C0.0214844 66.9096 3.80005 77.9304 10.243 86.9166C13.9489 92.1 19.7378 95.37 26.0112 95.9028C16.7828 85.4391 24.6306 76.6951 24.6306 76.6951C20.9731 78.4633 19.4714 84.4218 19.4714 84.4218C12.544 80.1588 14.1427 75.0723 14.1427 75.0723C14.5787 74.0065 15.5717 71.0757 20.9005 72.1415C31.2189 38.1586 65.2017 55.8646 65.2017 55.8646C64.6689 54.7988 62.9007 48.7434 62.9007 48.7434C40.8348 45.5462 33.3746 29.899 33.3746 29.899C53.8418 23.6741 66.2917 40.5807 66.2917 40.5807C60.5996 26.7018 46.9145 32.2243 43.3539 9.45602C67.1152 13.4041 70.5547 32.0305 71.0391 36.0513C71.3782 35.2762 73.2675 34.2347 81.0669 34.6949C93.1534 35.3973 102.769 47.6777 102.769 47.6777C102.769 72.5774 72.3471 66.5705 72.3471 85.3907C72.3471 89.799 77.143 89.5326 78.7416 91.6641C80.0496 93.408 79.4925 95.3457 79.226 95.9755H82.1084C88.9389 95.9755 95.4303 92.8267 99.451 87.3042C106.451 77.6882 110.423 65.7227 109.939 52.7884V52.8126Z"
		fill="#FF570A"
	/>
</svg>
